Coordinates
version=1
nRows=26
nColumns=24
inDegrees=yes

Units are S.I. units (second, meters, Newtons, ...)
Angles are in degrees.

endheader
time	pelvis_tilt	pelvis_list	pelvis_rotation	pelvis_tx	pelvis_ty	pelvis_tz	hip_flexion_r	hip_adduction_r	hip_rotation_r	knee_angle_r	ankle_angle_r	subtalar_angle_r	mtp_angle_r	hip_flexion_l	hip_adduction_l	hip_rotation_l	knee_angle_l	ankle_angle_l	subtalar_angle_l	mtp_angle_l	lumbar_extension	lumbar_bending	lumbar_rotation
      1.28800000	     -3.07160641	     -2.84431491	     -6.81691720	     -0.00899159	      0.95437490	      0.34899267	    -16.33504055	      3.65686246	     -1.20718774	     -9.28640964	     12.59229439	      6.78423109	     10.18731884	     29.73163502	     -3.65625178	     -8.89855209	      0.07511590	      5.07890779	     -3.92631493	     -0.17843128	     -0.14739523	      6.33363569	     10.74258482
      1.29216667	     -3.13841837	     -2.69683266	     -6.89243771	     -0.00289864	      0.95370088	      0.34869284	    -16.47166929	      3.41041962	     -1.23698217	     -9.53779084	     12.35130287	      6.73429205	     10.29376057	     29.81935904	     -3.51369446	     -8.84373543	     -0.37842380	      4.94704128	     -4.19180771	     -0.17063136	      0.00673019	      6.14790230	     10.79780623
      1.29633333	     -3.23303617	     -2.56962167	     -6.95830227	      0.00321885	      0.95302017	      0.34834569	    -16.57257675	      3.18695785	     -1.28297990	     -9.79692555	     12.09757390	      6.80074933	     10.56924554	     29.91350097	     -3.37810527	     -8.61480199	     -0.81263694	      4.64912752	     -4.82280938	     -0.14374326	      0.19867203	      6.02625009	     10.94550552
      1.30050000	     -3.29944576	     -2.40873739	     -7.01872511	      0.00940964	      0.95241175	      0.34799471	    -16.68999472	      2.92385447	     -1.34775003	    -10.07870016	     11.81702324	      6.81955255	     10.87407052	     29.97498725	     -3.20618857	     -8.41499948	     -1.27411709	      4.35801732	     -5.37801175	     -0.10732167	      0.36979336	      5.83316334	     11.02790353
      1.30466667	     -3.38268089	     -2.24129567	     -7.07639166	      0.01564882	      0.95182001	      0.34763741	    -16.77860007	      2.65598251	     -1.40471354	    -10.37987248	     11.51943449	      6.82760042	     11.21273455	     30.05479130	     -3.02786345	     -8.20472017	     -1.76155630	      4.03215636	     -5.95995834	     -0.06052935	      0.56069627	      5.64360941	     11.11464481
      1.30883333	     -3.40907176	     -2.02511013	     -7.12074097	      0.02199242	      0.95132576	      0.34722159	    -16.90917161	      2.31502052	     -1.59723979	    -10.69374524	     11.09324668	      7.01600048	     15.42955414	     30.06230524	     -2.78439100	     -8.02009194	     -2.24622376	      3.71173066	     -6.54390413	      0.64566144	      0.70562937	      5.38046257	     11.09815746
      1.31300000	     -3.55471537	     -1.87518262	     -7.17278774	      0.02827390	      0.95074862	      0.34685674	    -16.90862230	      2.08336427	     -1.56047842	    -11.03775316	     10.77172216	      6.78487983	     15.49501870	     30.22252485	     -2.62823959	     -7.80774223	     -2.79699814	      3.29525788	     -7.09314218	      0.65304030	      0.97351538	      5.22490198	     11.25095994
      1.31716667	     -3.65796900	     -1.68401903	     -7.20544134	      0.03464994	      0.95026518	      0.34644679	    -16.94785869	      1.79978265	     -1.59609531	    -11.37718513	     10.37292110	      6.68796834	     15.60567087	     30.31690012	     -2.41137974	     -7.57072418	     -3.31765169	      2.83815405	     -7.71028064	      0.67187207	      1.20902082	      5.00670131	     11.32085857
      1.32133333	     -3.74664777	     -1.48683858	     -7.22903960	      0.04106384	      0.94983385	      0.34601215	    -16.97942888	      1.50680059	     -1.66134943	    -11.75923082	      9.94871733	      6.61936855	     15.77494589	     30.39364815	     -2.17974074	     -7.33538799	     -3.84354567	      2.35771497	     -8.35082041	      0.70525993	      1.43734507	      4.77249938	     11.37817722
      1.32550000	     -3.86499406	     -1.27593226	     -7.24333038	      0.04751984	      0.94941679	      0.34555417	    -16.96902044	      1.20580040	     -1.71310643	    -12.14957566	      9.48338899	      6.54346113	     15.98808639	     30.50576095	     -1.93273780	     -7.10921348	     -4.38418506	      1.83531679	     -8.96674545	      0.74873315	      1.69851735	      4.53776302	     11.43333587
      1.32966667	     -3.97034606	     -1.05986234	     -7.25118747	      0.05398855	      0.94906007	      0.34507211	    -16.93443549	      0.89491958	     -1.79320798	    -12.61011853	      8.99748856	      6.45007412	     16.31099961	     30.59850460	     -1.67275451	     -6.87393844	     -4.91891629	      1.30577776	     -9.61248556	      0.81652145	      1.94792743	      4.28840387	     11.47578745
      1.33383333	     -4.00789117	     -0.77037668	     -7.25002747	      0.06058817	      0.94884225	      0.34453863	    -16.97279408	      0.48576365	     -1.95775523	    -13.03498266	      8.34817500	      6.53979949	     19.39961134	     30.59841149	     -1.32520902	     -6.71462728	     -5.41656395	      0.73176403	    -10.23748760	      1.49395769	      2.13575683	      3.94252068	     11.44948883
      1.33800000	     -4.21599987	     -0.58497577	     -7.22293905	      0.06707187	      0.94845885	      0.34403350	    -16.80700482	      0.24520766	     -1.94168265	    -13.52540529	      7.80061179	      6.23902765	     19.50509594	     30.84902116	     -1.10235765	     -6.54040780	     -6.05967319	      0.21344011	    -10.64373168	      1.50630080	      2.51821457	      3.74216053	     11.52763531
      1.34216667	     -4.34440726	     -0.34869567	     -7.20020173	      0.07360244	      0.94823384	      0.34348253	    -16.68357530	     -0.07398632	     -1.99411295	    -14.08088884	      7.19284893	      6.02963957	     19.74167667	     30.97069133	     -0.80909048	     -6.32951692	     -6.61790172	     -0.33286727	    -11.21804254	      1.53852876	      2.79522978	      3.47577324	     11.55398893
      1.34633333	     -4.48788477	     -0.10490993	     -7.15364996	      0.08018728	      0.94804362	      0.34292231	    -16.55210218	     -0.38569085	     -2.01692446	    -14.60403846	      6.48691234	      5.86512888	     19.94492132	     31.13118479	     -0.50946756	     -6.20567813	     -7.22776170	     -0.85647313	    -11.62722783	      1.56437411	      3.12203239	      3.18749285	     11.56211214
      1.35050000	     -4.61982448	      0.15040934	     -7.10131966	      0.08675662	      0.94791243	      0.34231464	    -16.38476310	     -0.71613705	     -2.06710472	    -15.21073534	      5.76364743	      5.68711579	     20.20673590	     31.27580750	     -0.18921516	     -6.06531325	     -7.83203571	     -1.36400042	    -12.06792096	      1.59631786	      3.41896256	      2.89550540	     11.56257515
      1.35466667	     -4.71376061	      0.44318609	     -7.03893371	      0.09334833	      0.94785718	      0.34165819	    -16.20577949	     -1.10586217	     -2.21382861	    -15.89816073	      4.97554765	      5.53114384	     24.95108301	     31.37060782	      0.17774992	     -5.94856097	     -8.41858599	     -1.82672928	    -12.47874571	      2.20348891	      3.67875251	      2.54906093	     11.54010889
      1.35883333	     -4.82394297	      0.72453132	     -6.96770082	      0.09994773	      0.94786357	      0.34103223	    -16.01278146	     -1.45557890	     -2.22542785	    -16.57437724	      4.15800592	      5.25175309	     24.96713283	     31.49872890	      0.52311860	     -5.90304079	     -9.05195101	     -2.19318325	    -12.67539225	      2.19911952	      3.95186754	      2.21165358	     11.52611802
      1.36300000	     -4.96343655	      0.97043729	     -6.87772247	      0.10648245	      0.94787141	      0.34035853	    -15.74990219	     -1.76003387	     -2.23174332	    -17.31192004	      3.26863019	      5.02702395	     25.04972653	     31.66806199	      0.84500057	     -5.79305953	     -9.70751553	     -2.60184815	    -13.03822290	      2.19504192	      4.26240151	      1.92469298	     11.50327400
      1.36716667	     -5.04662571	      1.27734123	     -6.78429849	      0.11305299	      0.94798647	      0.33966138	    -15.50599144	     -2.13984669	     -2.26463681	    -18.11963239	      2.41529028	      4.75567105	     25.11498220	     31.76267020	      1.23024904	     -5.75432725	    -10.33709730	     -2.87433160	    -13.21055431	      2.19356386	      4.50279497	      1.54980958	     11.46586765
      1.37133333	     -5.17423034	      1.53277521	     -6.67671098	      0.11953394	      0.94809219	      0.33891536	    -15.17519882	     -2.45689304	     -2.27709945	    -18.98019579	      1.41915354	      4.56313486	     25.31299236	     31.91471723	      1.57264400	     -5.65504374	    -10.99000584	     -3.20042847	    -13.52763343	      2.19057957	      4.78670756	      1.26070341	     11.41876828
      1.37550000	     -5.26711459	      1.82386420	     -6.56438226	      0.12602861	      0.94827954	      0.33816892	    -14.84566897	     -2.81351514	     -2.28992037	    -19.89905361	      0.42728708	      4.31823844	     25.52689051	     32.01924652	      1.94902323	     -5.61835987	    -11.62798031	     -3.42507473	    -13.68755739	      2.18695846	      5.03476499	      0.90931334	     11.36455579
      1.37966667	     -5.34651227	      2.11384158	     -6.43969789	      0.13248304	      0.94851281	      0.33739362	    -14.49506752	     -3.16727356	     -2.29512725	    -20.87131940	     -0.60849678	      4.06635127	     25.76946854	     32.10925383	      2.33028740	     -5.59201996	    -12.26923319	     -3.59060910	    -13.80813661	      2.18107751	      5.25660659	      0.56034612	     11.30189902
      1.38383333	     -5.39786310	      2.43910074	     -6.31181095	      0.13894250	      0.94881105	      0.33660513	    -14.14076418	     -3.55991653	     -2.29253532	    -21.89696280	     -1.60344596	      3.76368504	     25.89891307	     32.16049215	      2.74736083	     -5.61594174	    -12.89898926	     -3.66236378	    -13.87167705	      2.17753725	      5.44875761	      0.14967933	     11.23866356
      1.38800000	     -5.48683233	      2.69318960	     -6.17889332	      0.14526541	      0.94909990	      0.33580675	    -13.69493296	     -3.86999035	     -2.26255839	    -22.99389744	     -2.77488017	      3.53557903	     26.17877428	     32.24574900	      3.09434059	     -5.58301315	    -13.51639612	     -3.77240180	    -13.94755900	      2.16504600	      5.67294620	     -0.15000648	     11.16207668
      1.39216667	     -5.54552158	      2.98263867	     -6.04112793	      0.15156768	      0.94944119	      0.33498034	    -13.24326873	     -4.22093005	     -2.23306610	    -24.15013546	     -3.90168037	      3.26251455	     26.48448948	     32.28953940	      3.48058416	     -5.59464682	    -14.11747820	     -3.80762563	    -13.97637437	      2.14846729	      5.84980404	     -0.49802829	     11.08090394
